<svg width="27" height="28" viewBox="0 0 27 28" fill="none" xmlns="http://www.w3.org/2000/svg">
<path d="M15.7542 13.7565L12.5958 12.2281C12.3202 12.0954 12.0938 12.2442 12.0938 12.5606V15.4394C12.0938 15.7558 12.3202 15.9046 12.5958 15.7719L15.7528 14.2435C16.0298 14.1094 16.0298 13.8906 15.7542 13.7565ZM13.5 0C6.04406 0 0 6.26792 0 14C0 21.7321 6.04406 28 13.5 28C20.9559 28 27 21.7321 27 14C27 6.26792 20.9559 0 13.5 0ZM13.5 19.6875C6.58969 19.6875 6.46875 19.0415 6.46875 14C6.46875 8.95854 6.58969 8.3125 13.5 8.3125C20.4103 8.3125 20.5312 8.95854 20.5312 14C20.5312 19.0415 20.4103 19.6875 13.5 19.6875Z" fill="white"/>
</svg>
