<svg width="119" height="55" viewBox="0 0 119 55" fill="none" xmlns="http://www.w3.org/2000/svg">
<path d="M15.79 5C16.43 5 16.9667 5.16 17.4 5.48C17.84 5.79333 18.1667 6.21667 18.38 6.75C18.6 7.27667 18.71 7.86 18.71 8.5C18.71 9.16 18.6 9.75333 18.38 10.28C18.1667 10.8067 17.84 11.2267 17.4 11.54C16.9667 11.8467 16.43 12 15.79 12H13.24C13.1533 12 13.08 11.9733 13.02 11.92C12.9667 11.86 12.94 11.7867 12.94 11.7V8.77H12.47C12.3767 8.77 12.3033 8.74333 12.25 8.69C12.1967 8.63667 12.17 8.56667 12.17 8.48C12.17 8.4 12.1967 8.33667 12.25 8.29C12.31 8.23667 12.3833 8.21 12.47 8.21H12.94V5.3C12.94 5.21333 12.9667 5.14333 13.02 5.09C13.08 5.03 13.1533 5 13.24 5H15.79ZM15.69 11.41C16.49 11.41 17.0867 11.1433 17.48 10.61C17.8733 10.07 18.07 9.36667 18.07 8.5C18.07 7.96 17.9867 7.47333 17.82 7.04C17.6533 6.6 17.39 6.25 17.03 5.99C16.6767 5.72333 16.23 5.59 15.69 5.59H13.57V8.21H14.11C14.2033 8.21 14.2767 8.23667 14.33 8.29C14.3833 8.33667 14.41 8.40333 14.41 8.49C14.41 8.57667 14.3833 8.64667 14.33 8.7C14.2767 8.74667 14.2033 8.77 14.11 8.77H13.57V11.41H15.69ZM24.6875 5.33C25.2075 5.63 25.6175 6.05667 25.9175 6.61C26.2175 7.16333 26.3675 7.79333 26.3675 8.5C26.3675 9.18667 26.2242 9.80333 25.9375 10.35C25.6508 10.8967 25.2542 11.3267 24.7475 11.64C24.2408 11.9467 23.6642 12.1 23.0175 12.1C22.3708 12.1 21.7942 11.9467 21.2875 11.64C20.7808 11.3267 20.3842 10.8967 20.0975 10.35C19.8108 9.80333 19.6675 9.18667 19.6675 8.5C19.6675 7.80667 19.8108 7.18667 20.0975 6.64C20.3842 6.09333 20.7808 5.66667 21.2875 5.36C21.7942 5.05333 22.3708 4.9 23.0175 4.9C23.3108 4.9 23.6042 4.93667 23.8975 5.01C24.1908 4.99667 24.4042 4.93 24.5375 4.81C24.6775 4.69 24.7475 4.5 24.7475 4.24C24.7475 4.14 24.7675 4.05667 24.8075 3.99C24.8542 3.91667 24.9208 3.88 25.0075 3.88C25.1808 3.88 25.2675 4 25.2675 4.24C25.2675 4.48667 25.2175 4.70333 25.1175 4.89C25.0175 5.07667 24.8742 5.22333 24.6875 5.33ZM23.0175 11.5C23.5442 11.5 24.0108 11.3733 24.4175 11.12C24.8308 10.8667 25.1508 10.5133 25.3775 10.06C25.6108 9.6 25.7275 9.08 25.7275 8.5C25.7275 7.92 25.6108 7.40333 25.3775 6.95C25.1508 6.49 24.8308 6.13333 24.4175 5.88C24.0108 5.62667 23.5442 5.5 23.0175 5.5C22.4908 5.5 22.0208 5.62667 21.6075 5.88C21.2008 6.13333 20.8808 6.49 20.6475 6.95C20.4208 7.40333 20.3075 7.92 20.3075 8.5C20.3075 9.08 20.4208 9.6 20.6475 10.06C20.8808 10.5133 21.2008 10.8667 21.6075 11.12C22.0208 11.3733 22.4908 11.5 23.0175 11.5ZM32.9038 5C32.9904 5 33.0571 5.02667 33.1038 5.08C33.1571 5.13333 33.1838 5.2 33.1838 5.28V11.68C33.1838 11.78 33.1538 11.86 33.0938 11.92C33.0338 11.9733 32.9604 12 32.8738 12C32.8271 12 32.7804 11.99 32.7338 11.97C32.6938 11.95 32.6604 11.9267 32.6338 11.9L28.3438 6.12V11.73C28.3438 11.8033 28.3138 11.8667 28.2538 11.92C28.2004 11.9733 28.1371 12 28.0638 12C27.9838 12 27.9171 11.9733 27.8638 11.92C27.8104 11.8667 27.7838 11.8033 27.7838 11.73V5.3C27.7838 5.20667 27.8104 5.13333 27.8638 5.08C27.9238 5.02667 27.9938 5 28.0738 5C28.1804 5 28.2604 5.03667 28.3137 5.11L32.6238 10.92V5.28C32.6238 5.2 32.6504 5.13333 32.7038 5.08C32.7571 5.02667 32.8238 5 32.9038 5ZM42.8535 4.99C42.9402 4.99 43.0135 5.02 43.0735 5.08C43.1335 5.13333 43.1635 5.19667 43.1635 5.27C43.1635 5.31667 43.1535 5.36667 43.1335 5.42L40.4635 11.8C40.4368 11.86 40.3968 11.91 40.3435 11.95C40.2902 11.9833 40.2335 12 40.1735 12C40.1135 12 40.0568 11.9833 40.0035 11.95C39.9568 11.9167 39.9202 11.87 39.8935 11.81L37.2335 5.44C37.2135 5.4 37.2035 5.34667 37.2035 5.28C37.2035 5.19333 37.2335 5.12333 37.2935 5.07C37.3535 5.01667 37.4202 4.99 37.4935 4.99C37.6335 4.99 37.7335 5.06333 37.7935 5.21L40.2035 10.97L42.5735 5.19C42.6068 5.13 42.6468 5.08333 42.6935 5.05C42.7468 5.01 42.8002 4.99 42.8535 4.99ZM45.0739 11.69C45.0672 11.7767 45.0339 11.85 44.9739 11.91C44.9139 11.97 44.8406 12 44.7539 12C44.6606 12 44.5839 11.9733 44.5239 11.92C44.4706 11.86 44.4439 11.7833 44.4439 11.69V5.31C44.4439 5.21667 44.4739 5.14333 44.5339 5.09C44.5939 5.03 44.6706 5 44.7639 5C44.8506 5 44.9239 5.03 44.9839 5.09C45.0439 5.15 45.0739 5.22333 45.0739 5.31V11.69ZM44.7639 13.4C44.6306 13.4 44.5272 13.3633 44.4539 13.29C44.3806 13.2233 44.3439 13.1267 44.3439 13V12.89C44.3439 12.77 44.3806 12.6733 44.4539 12.6C44.5339 12.5333 44.6372 12.5 44.7639 12.5C45.0372 12.5 45.1739 12.63 45.1739 12.89V13C45.1739 13.1267 45.1372 13.2233 45.0639 13.29C44.9972 13.3633 44.8972 13.4 44.7639 13.4ZM52.3483 5C52.7149 5 53.0449 5.08667 53.3383 5.26C53.6316 5.42667 53.8583 5.66333 54.0183 5.97C54.1849 6.27 54.2683 6.61 54.2683 6.99C54.2683 7.37 54.1849 7.71667 54.0183 8.03C53.8583 8.34333 53.6316 8.59 53.3383 8.77C53.0449 8.95 52.7149 9.04 52.3483 9.04H50.2783V11.7C50.2783 11.7867 50.2483 11.86 50.1883 11.92C50.1349 11.9733 50.0649 12 49.9783 12C49.8916 12 49.8183 11.9733 49.7583 11.92C49.7049 11.86 49.6783 11.7867 49.6783 11.7V5.3C49.6783 5.21333 49.7049 5.14333 49.7583 5.09C49.8183 5.03 49.8916 5 49.9783 5H52.3483ZM52.3483 8.46C52.7349 8.46 53.0483 8.32 53.2883 8.04C53.5283 7.76 53.6483 7.41 53.6483 6.99C53.6483 6.57667 53.5283 6.24 53.2883 5.98C53.0483 5.72 52.7349 5.59 52.3483 5.59H50.2783V8.46H52.3483ZM60.6453 5C60.7386 5 60.812 5.03 60.8653 5.09C60.9253 5.14333 60.9553 5.21667 60.9553 5.31V11.69C60.9486 11.7833 60.9153 11.86 60.8553 11.92C60.7953 11.9733 60.722 12 60.6353 12C60.5486 12 60.4753 11.97 60.4153 11.91C60.3553 11.85 60.3253 11.7767 60.3253 11.69V8.71H56.2653V11.69C56.2586 11.7767 56.2253 11.85 56.1653 11.91C56.1053 11.97 56.032 12 55.9453 12C55.852 12 55.7753 11.9733 55.7153 11.92C55.662 11.86 55.6353 11.7833 55.6353 11.69V5.31C55.6353 5.21667 55.6653 5.14333 55.7253 5.09C55.7853 5.03 55.862 5 55.9553 5C56.042 5 56.1153 5.03 56.1753 5.09C56.2353 5.15 56.2653 5.22333 56.2653 5.31V8.13H60.3253V5.31C60.3253 5.22333 60.3553 5.15 60.4153 5.09C60.482 5.03 60.5586 5 60.6453 5ZM68.0526 11.6C68.0659 11.6533 68.0726 11.6933 68.0726 11.72C68.0726 11.8067 68.0426 11.8767 67.9826 11.93C67.9226 11.9833 67.8526 12.01 67.7726 12.01C67.7059 12.01 67.6459 11.9933 67.5926 11.96C67.5459 11.92 67.5092 11.87 67.4826 11.81L66.7326 9.98H63.4826L62.7426 11.81C62.6892 11.9433 62.5992 12.01 62.4726 12.01C62.3792 12.01 62.3092 11.9867 62.2626 11.94C62.2159 11.8933 62.1892 11.83 62.1826 11.75V11.72C62.1826 11.68 62.1859 11.65 62.1926 11.63L64.8326 5.17C64.8859 5.03667 64.9859 4.97 65.1326 4.97C65.1992 4.97 65.2559 4.99 65.3026 5.03C65.3559 5.06333 65.3959 5.11 65.4226 5.17L68.0526 11.6ZM63.7126 9.39H66.4926L65.0926 5.97L63.7126 9.39ZM65.1626 4.54C65.1026 4.54 65.0559 4.52333 65.0226 4.49C64.9892 4.45667 64.9726 4.41333 64.9726 4.36C64.9726 4.30667 65.0059 4.24667 65.0726 4.18L65.9626 3.49C66.0492 3.41667 66.1459 3.38 66.2526 3.38C66.3392 3.38 66.4092 3.41 66.4626 3.47C66.5226 3.52333 66.5526 3.59333 66.5526 3.68C66.5526 3.81333 66.4892 3.91667 66.3626 3.99L65.3826 4.48C65.2892 4.52 65.2159 4.54 65.1626 4.54ZM73.7672 5C73.8539 5 73.9239 5.02667 73.9772 5.08C74.0372 5.13333 74.0672 5.20333 74.0672 5.29C74.0672 5.37667 74.0372 5.44667 73.9772 5.5C73.9239 5.54667 73.8539 5.57 73.7672 5.57H71.6972V11.7C71.6972 11.7867 71.6672 11.86 71.6072 11.92C71.5472 11.9733 71.4739 12 71.3872 12C71.2939 12 71.2172 11.9733 71.1572 11.92C71.1039 11.86 71.0772 11.7867 71.0772 11.7V5.57H69.0072C68.9205 5.57 68.8472 5.54333 68.7872 5.49C68.7339 5.43667 68.7072 5.36667 68.7072 5.28C68.7072 5.2 68.7339 5.13333 68.7872 5.08C68.8472 5.02667 68.9205 5 69.0072 5H73.7672ZM82.5367 5C82.6234 5 82.6934 5.02667 82.7467 5.08C82.8067 5.13333 82.8367 5.20333 82.8367 5.29C82.8367 5.37667 82.8067 5.44667 82.7467 5.5C82.6934 5.54667 82.6234 5.57 82.5367 5.57H80.4667V11.7C80.4667 11.7867 80.4367 11.86 80.3767 11.92C80.3167 11.9733 80.2434 12 80.1567 12C80.0634 12 79.9867 11.9733 79.9267 11.92C79.8734 11.86 79.8467 11.7867 79.8467 11.7V5.57H77.7767C77.6901 5.57 77.6167 5.54333 77.5567 5.49C77.5034 5.43667 77.4767 5.36667 77.4767 5.28C77.4767 5.2 77.5034 5.13333 77.5567 5.08C77.6167 5.02667 77.6901 5 77.7767 5H82.5367ZM89.2219 11.46C89.3219 11.5267 89.3719 11.61 89.3719 11.71C89.3719 11.7433 89.3585 11.7867 89.3319 11.84C89.3052 11.8867 89.2685 11.9233 89.2219 11.95C89.1752 11.9767 89.1252 11.99 89.0719 11.99C89.0052 11.99 88.9485 11.9767 88.9019 11.95C88.7152 11.8433 88.5652 11.67 88.4519 11.43C88.3385 11.19 88.2819 10.8067 88.2819 10.28C88.2819 9.81333 88.1519 9.48667 87.8919 9.3C87.6319 9.10667 87.3219 9.01 86.9619 9.01H84.7419V11.7C84.7419 11.7867 84.7152 11.86 84.6619 11.92C84.6085 11.9733 84.5385 12 84.4519 12C84.3585 12 84.2785 11.9733 84.2119 11.92C84.1452 11.86 84.1119 11.7867 84.1119 11.7V5.3C84.1119 5.21333 84.1385 5.14333 84.1919 5.09C84.2519 5.03 84.3252 5 84.4119 5H87.1119C87.4919 5 87.8319 5.08333 88.1319 5.25C88.4319 5.41 88.6652 5.63333 88.8319 5.92C89.0052 6.20667 89.0919 6.53 89.0919 6.89C89.0919 7.31667 88.9785 7.69333 88.7519 8.02C88.5319 8.34 88.2419 8.56 87.8819 8.68C88.1752 8.79333 88.4152 8.98667 88.6019 9.26C88.7885 9.52667 88.8852 9.85333 88.8919 10.24C88.8985 10.6533 88.9252 10.9433 88.9719 11.11C89.0252 11.2767 89.1085 11.3933 89.2219 11.46ZM87.1419 8.46C87.3752 8.44 87.5919 8.36333 87.7919 8.23C87.9919 8.09667 88.1519 7.91667 88.2719 7.69C88.3919 7.46333 88.4519 7.20333 88.4519 6.91C88.4519 6.53 88.3219 6.21667 88.0619 5.97C87.8085 5.71667 87.4752 5.59 87.0619 5.59H84.7419V8.46H87.1419ZM91.4411 11.69C91.4344 11.7767 91.4011 11.85 91.3411 11.91C91.2811 11.97 91.2078 12 91.1211 12C91.0278 12 90.9511 11.9733 90.8911 11.92C90.8378 11.86 90.8111 11.7833 90.8111 11.69V5.31C90.8111 5.21667 90.8411 5.14333 90.9011 5.09C90.9611 5.03 91.0378 5 91.1311 5C91.2178 5 91.2911 5.03 91.3511 5.09C91.4111 5.15 91.4411 5.22333 91.4411 5.31V11.69ZM97.2811 11.41C97.3678 11.41 97.4378 11.44 97.4911 11.5C97.5511 11.56 97.5811 11.63 97.5811 11.71C97.5811 11.7967 97.5511 11.8667 97.4911 11.92C97.4378 11.9733 97.3678 12 97.2811 12H93.6111C93.5244 12 93.4511 11.9733 93.3911 11.92C93.3378 11.86 93.3111 11.7867 93.3111 11.7V5.3C93.3111 5.21333 93.3378 5.14333 93.3911 5.09C93.4511 5.03 93.5244 5 93.6111 5H97.2811C97.3678 5 97.4378 5.03 97.4911 5.09C97.5511 5.14333 97.5811 5.21333 97.5811 5.3C97.5811 5.38667 97.5511 5.45667 97.4911 5.51C97.4378 5.56333 97.3678 5.59 97.2811 5.59H93.9411V8.1H96.8311C96.9178 8.1 96.9878 8.13 97.0411 8.19C97.1011 8.24333 97.1311 8.31333 97.1311 8.4C97.1311 8.48667 97.1011 8.55667 97.0411 8.61C96.9878 8.66333 96.9178 8.69 96.8311 8.69H93.9411V11.41H97.2811ZM96.6911 4.06C96.7444 4.12 96.7711 4.17667 96.7711 4.23C96.7711 4.26333 96.7544 4.29667 96.7211 4.33C96.6878 4.36333 96.6511 4.38 96.6111 4.38C96.5378 4.38 96.4478 4.33667 96.3411 4.25L95.5111 3.65L94.7411 4.26C94.6211 4.34667 94.5311 4.39 94.4711 4.39C94.4244 4.39 94.3844 4.37667 94.3511 4.35C94.3178 4.31667 94.3011 4.28 94.3011 4.24C94.3011 4.18667 94.3278 4.13 94.3811 4.07L95.1511 3.25C95.2044 3.19 95.2544 3.14667 95.3011 3.12C95.3478 3.09333 95.4078 3.08 95.4811 3.08H95.5911C95.6644 3.08 95.7244 3.09333 95.7711 3.12C95.8178 3.14667 95.8711 3.19 95.9311 3.25L96.6911 4.06ZM94.7811 0.98C95.0011 0.773333 95.2478 0.67 95.5211 0.67C95.8078 0.67 96.0144 0.746667 96.1411 0.9C96.2744 1.05333 96.3411 1.22333 96.3411 1.41C96.3411 1.51667 96.3111 1.61667 96.2511 1.71C96.1978 1.79667 96.1144 1.89667 96.0011 2.01C95.9211 2.10333 95.8811 2.19333 95.8811 2.28C95.8744 2.33333 95.8511 2.37333 95.8111 2.4C95.7711 2.42667 95.7178 2.44 95.6511 2.44C95.5978 2.44 95.5511 2.42333 95.5111 2.39C95.4778 2.35667 95.4611 2.31667 95.4611 2.27C95.4611 2.11 95.5078 1.97667 95.6011 1.87C95.7144 1.75 95.7911 1.66333 95.8311 1.61C95.8711 1.55667 95.8911 1.49333 95.8911 1.42C95.8911 1.33333 95.8544 1.26333 95.7811 1.21C95.7144 1.15 95.6311 1.12 95.5311 1.12C95.3844 1.12 95.2311 1.18 95.0711 1.3C95.0178 1.35333 94.9611 1.38 94.9011 1.38C94.8478 1.38 94.7944 1.35333 94.7411 1.3C94.7078 1.25333 94.6911 1.20667 94.6911 1.16C94.6911 1.1 94.7211 1.04 94.7811 0.98ZM104.115 5C104.201 5 104.268 5.02667 104.315 5.08C104.368 5.13333 104.395 5.2 104.395 5.28V11.68C104.395 11.78 104.365 11.86 104.305 11.92C104.245 11.9733 104.171 12 104.085 12C104.038 12 103.991 11.99 103.945 11.97C103.905 11.95 103.871 11.9267 103.845 11.9L99.5547 6.12V11.73C99.5547 11.8033 99.5247 11.8667 99.4647 11.92C99.4114 11.9733 99.348 12 99.2747 12C99.1947 12 99.128 11.9733 99.0747 11.92C99.0214 11.8667 98.9947 11.8033 98.9947 11.73V5.3C98.9947 5.20667 99.0214 5.13333 99.0747 5.08C99.1347 5.02667 99.2047 5 99.2847 5C99.3914 5 99.4714 5.03667 99.5247 5.11L103.835 10.92V5.28C103.835 5.2 103.861 5.13333 103.915 5.08C103.968 5.02667 104.035 5 104.115 5Z" fill="white"/>
<path d="M66.0956 52.4003H72.3454V53.8719H64.5332V29H66.0956" fill="white"/>
<path d="M88.2779 53.8718H86.8063V51.1648H86.7337C85.6254 53.0724 83.2091 54.1807 81.0108 54.1807C76.4506 54.1807 73.5801 50.6379 73.5801 46.2595C73.5801 41.881 76.4143 38.5381 80.9381 38.5381C83.2454 38.5381 85.4619 39.5737 86.7337 41.4631H86.8063V38.8833H88.2779V53.8718ZM75.0699 46.2776C75.0699 49.7114 77.3408 52.8363 80.9926 52.8363C84.826 52.8363 86.9154 49.7295 86.9154 46.1141C86.9154 42.644 84.5354 39.9188 80.8836 39.9188C77.4499 39.9188 75.0699 43.0256 75.0699 46.2776Z" fill="white"/>
<path d="M92.2743 41.2089H92.347C93.2191 39.5556 94.8542 38.5564 96.7982 38.5564C100.668 38.5564 101.74 40.9546 101.74 44.8243V53.872H100.286V44.8062C100.286 42.1173 99.9594 39.9008 96.671 39.9008C92.892 39.9008 92.2743 43.4072 92.2743 46.4595V53.8538H90.8027V38.8834H92.2743" fill="white"/>
<path d="M117.511 51.1649H117.438C116.33 53.0725 113.914 54.1807 111.715 54.1807C107.155 54.1807 104.303 50.638 104.303 46.2595C104.303 41.881 107.137 38.5381 111.661 38.5381C113.968 38.5381 116.185 39.5737 117.456 41.4632H117.529V29.3997H119.001V53.8719H117.529L117.511 51.1649ZM117.62 46.1142C117.62 42.6441 115.24 39.9189 111.588 39.9189C108.136 39.9189 105.756 43.0256 105.756 46.2777C105.756 49.7114 108.027 52.8363 111.679 52.8363C115.531 52.8181 117.62 49.7114 117.62 46.1142Z" fill="white"/>
<path d="M13.2626 40.8819H12.9901C16.224 40.8819 18.822 38.2839 18.822 35.0681C18.822 31.8524 16.2058 29.2544 12.9901 29.2544H0V33.6329C0.690382 33.6329 1.27176 34.1961 1.27176 34.9046V48.0219C1.27176 48.7123 0.70855 49.2936 0 49.2936V53.6721H13.2626C16.8054 53.6721 19.6577 50.8197 19.6577 47.2952C19.6577 43.7342 16.7872 40.8819 13.2626 40.8819ZM8.92046 49.2755H8.33909V43.6434H8.92046C10.4829 43.6434 11.7547 44.897 11.7547 46.4594C11.7547 48.0037 10.4829 49.2755 8.92046 49.2755ZM8.92046 39.2649H8.33909V33.6329H8.92046C10.4829 33.6329 11.7547 34.9046 11.7547 36.4489C11.7547 37.9932 10.4829 39.2649 8.92046 39.2649Z" fill="white"/>
<path d="M22.2012 29V33.6147C22.8916 33.6147 23.4548 34.1597 23.4729 34.8501V48.0037C23.4729 48.6941 22.9097 49.2573 22.2012 49.2573V53.7811H30.7038C31.3942 53.7811 31.9574 53.2179 31.9574 52.5275V49.2573C31.267 49.2573 30.7219 48.7122 30.6856 48.0218V34.8864C30.6856 34.196 31.2488 33.6328 31.9574 33.6328V29" fill="white"/>
<path d="M59.2467 33.6147V29H49.0726L46.8743 39.2649L44.676 29H34.502V33.6147C35.2105 33.6147 35.7737 34.1779 35.7737 34.8682V47.9855C35.7737 48.6759 35.2105 49.2391 34.502 49.2391V53.7629H41.6056C42.3142 53.7629 42.8774 53.1997 42.8774 52.4912V49.2391C42.1688 49.2391 41.6056 48.6759 41.6056 47.9855V38.4655L44.894 53.7992H47.601L50.8713 38.4655V48.0037C50.8713 48.6941 50.3081 49.2573 49.5995 49.2573V53.7811H50.8713H57.9931C58.6835 53.7811 59.2285 53.236 59.2285 52.5457V49.2573C58.5382 49.2573 57.9568 48.6941 57.9568 48.0037V34.8864C57.9749 34.1779 58.5382 33.6147 59.2467 33.6147Z" fill="white"/>
</svg>
